<svg width="35" height="31" viewBox="0 0 35 31" fill="none" xmlns="http://www.w3.org/2000/svg">
<path d="M22.9206 3.19106C22.9629 3.06944 22.9776 2.94164 22.9641 2.81497C22.9506 2.68829 22.909 2.56522 22.8418 2.45277C22.7745 2.34032 22.6829 2.24071 22.5722 2.15961C22.4615 2.07851 22.3339 2.01752 22.1966 1.98012C22.0593 1.94272 21.915 1.92964 21.7719 1.94163C21.6289 1.95361 21.49 1.99043 21.363 2.04999C21.2361 2.10954 21.1236 2.19065 21.032 2.2887C20.9405 2.38675 20.8716 2.49981 20.8294 2.62143L12.0794 27.8089C11.9941 28.0546 12.0225 28.3201 12.1583 28.5472C12.294 28.7743 12.5261 28.9443 12.8034 29.0199C13.0808 29.0954 13.3806 29.0703 13.637 28.95C13.8934 28.8297 14.0853 28.6242 14.1706 28.3786L22.9206 3.19106ZM10.6181 8.03287C10.72 8.12286 10.8008 8.22976 10.8559 8.34746C10.9111 8.46515 10.9395 8.59132 10.9395 8.71875C10.9395 8.84617 10.9111 8.97234 10.8559 9.09004C10.8008 9.20773 10.72 9.31463 10.6181 9.40462L3.73406 15.5L10.6181 21.5954C10.8235 21.7773 10.9389 22.024 10.9389 22.2812C10.9389 22.5385 10.8235 22.7852 10.6181 22.9671C10.4128 23.149 10.1342 23.2512 9.84375 23.2512C9.5533 23.2512 9.27475 23.149 9.06938 22.9671L1.41313 16.1859C1.31127 16.0959 1.23046 15.989 1.17532 15.8713C1.12018 15.7536 1.0918 15.6274 1.0918 15.5C1.0918 15.3726 1.12018 15.2464 1.17532 15.1287C1.23046 15.011 1.31127 14.9041 1.41313 14.8141L9.06938 8.03287C9.17098 7.94266 9.29167 7.87108 9.42455 7.82224C9.55743 7.7734 9.69989 7.74827 9.84375 7.74827C9.98762 7.74827 10.1301 7.7734 10.2629 7.82224C10.3958 7.87108 10.5165 7.94266 10.6181 8.03287ZM24.3819 8.03287C24.28 8.12286 24.1992 8.22976 24.1441 8.34746C24.0889 8.46515 24.0605 8.59132 24.0605 8.71875C24.0605 8.84617 24.0889 8.97234 24.1441 9.09004C24.1992 9.20773 24.28 9.31463 24.3819 9.40462L31.2659 15.5L24.3819 21.5954C24.2802 21.6854 24.1995 21.7924 24.1445 21.9101C24.0894 22.0277 24.0611 22.1539 24.0611 22.2812C24.0611 22.4086 24.0894 22.5348 24.1445 22.6524C24.1995 22.7701 24.2802 22.8771 24.3819 22.9671C24.4836 23.0572 24.6043 23.1286 24.7372 23.1774C24.87 23.2261 25.0124 23.2512 25.1563 23.2512C25.3001 23.2512 25.4425 23.2261 25.5753 23.1774C25.7082 23.1286 25.8289 23.0572 25.9306 22.9671L33.5869 16.1859C33.6887 16.0959 33.7695 15.989 33.8247 15.8713C33.8798 15.7536 33.9082 15.6274 33.9082 15.5C33.9082 15.3726 33.8798 15.2464 33.8247 15.1287C33.7695 15.011 33.6887 14.9041 33.5869 14.8141L25.9306 8.03287C25.829 7.94266 25.7083 7.87108 25.5754 7.82224C25.4426 7.7734 25.3001 7.74827 25.1563 7.74827C25.0124 7.74827 24.8699 7.7734 24.7371 7.82224C24.6042 7.87108 24.4835 7.94266 24.3819 8.03287Z" fill="#AED6DC"/>
</svg>
