<svg width="53" height="40" viewBox="0 0 53 40" fill="none" xmlns="http://www.w3.org/2000/svg">
<path d="M46.7844 6.15261C46.8853 6.24178 46.9556 6.36235 46.9849 6.49632C47.0141 6.63028 47.0007 6.77045 46.9467 6.89588C45.066 11.2613 41.1166 17.2941 38.2256 20.4377C37.4152 21.3171 36.4158 21.986 35.3087 22.3901C35.2866 22.679 35.2349 23.0748 35.112 23.4948C34.865 24.3335 34.2922 25.3772 33.0126 25.7093C31.7733 26.0149 30.4891 26.0719 29.2291 25.8773C28.9948 25.839 28.7638 25.7816 28.5383 25.7055C28.3297 25.6398 28.1352 25.533 27.9655 25.3912C27.8536 25.2926 27.7674 25.1666 27.7147 25.0246C27.6495 24.8424 27.6513 24.6417 27.7197 24.4608C27.8364 24.149 28.1081 23.9772 28.2863 23.8855C28.7706 23.6348 29.0546 23.309 29.352 22.8342C29.4688 22.651 29.5782 22.4562 29.7048 22.2335L29.8486 21.9815C30.0342 21.657 30.2493 21.2942 30.5198 20.9022C31.1688 19.9617 31.996 19.725 32.6659 19.7619C32.8208 19.7708 32.9646 19.7937 33.0937 19.823C33.1699 19.6041 33.2682 19.3393 33.3862 19.0492C33.7071 18.2613 34.195 17.2432 34.8453 16.4159C37.52 13.0177 42.4417 8.51734 46.0518 6.1017C46.163 6.02742 46.2943 5.99226 46.4263 6.00143C46.5583 6.0106 46.6839 6.06362 46.7844 6.15261Z" fill="#AED6DC"/>
<path d="M8 10.48C8 10.48 8 6 12.1485 6H37.0396C37.0396 6 41.1882 6 41.1882 10.48V23.92C41.1882 23.92 41.1882 28.4 37.0396 28.4H28.7426C28.7426 29.8941 28.9148 31.0141 29.2612 31.76H30.8169C31.0919 31.76 31.3557 31.878 31.5502 32.088C31.7447 32.2981 31.854 32.583 31.854 32.88C31.854 33.177 31.7447 33.4619 31.5502 33.672C31.3557 33.882 31.0919 34 30.8169 34H18.3713C18.0962 34 17.8324 33.882 17.6379 33.672C17.4434 33.4619 17.3342 33.177 17.3342 32.88C17.3342 32.583 17.4434 32.2981 17.6379 32.088C17.8324 31.878 18.0962 31.76 18.3713 31.76H19.927C20.2734 31.0141 20.4456 29.8941 20.4456 28.4H12.1485C12.1485 28.4 8 28.4 8 23.92V10.48ZM10.8998 8.5648C10.672 8.73611 10.4902 8.96951 10.373 9.24128C10.1961 9.63579 10.0946 10.0647 10.0743 10.5024V23.92C10.0743 24.648 10.2361 25.0445 10.375 25.2685C10.5202 25.5037 10.7277 25.6896 11.0015 25.8374C11.351 26.0203 11.7299 26.129 12.1174 26.1578L12.1693 26.16H37.0396C37.7138 26.16 38.0809 25.9853 38.2883 25.8352C38.5162 25.6639 38.698 25.4305 38.8152 25.1587C38.9845 24.7812 39.0852 24.3721 39.1118 23.9536L39.1139 23.8976V10.48C39.1139 9.752 38.9521 9.35552 38.8131 9.13152C38.6546 8.8854 38.4384 8.68907 38.1867 8.56256C37.8214 8.37162 37.4242 8.26193 37.0189 8.24H12.1485C11.4744 8.24 11.1072 8.41472 10.8998 8.5648Z" fill="#AED6DC"/>
</svg>
