<svg width="448" height="448" viewBox="0 0 448 448" fill="none" xmlns="http://www.w3.org/2000/svg">
<path d="M439.55 204.05L244 8.45002C238.587 3.04145 231.247 0.00335693 223.595 0.00335693C215.943 0.00335693 208.603 3.04145 203.19 8.45002L162.53 49.08L214.05 100.6C241.11 91.46 266.73 117.37 257.44 144.28L307.1 193.94C341.33 182.14 368.28 224.94 342.57 250.63C316.08 277.12 272.36 247.76 286.57 213.29L240.22 167V288.85C265.52 301.39 262.48 330.7 249.3 343.85C242.861 350.286 234.129 353.901 225.025 353.901C215.921 353.901 207.189 350.286 200.75 343.85C183.18 326.25 189.68 296.94 212 287.85V164.85C191.2 156.34 187.4 134.11 193.36 119.85L142.57 69L8.45006 203.14C3.03905 208.552 -0.000732422 215.892 -0.000732422 223.545C-0.000732422 231.198 3.03905 238.538 8.45006 243.95L204.06 439.55C209.472 444.958 216.809 447.996 224.46 447.996C232.111 447.996 239.448 444.958 244.86 439.55L439.55 244.86C444.961 239.448 448.001 232.108 448.001 224.455C448.001 216.802 444.961 209.462 439.55 204.05Z" fill="#AED6DC"/>
</svg>
