<svg width="34" height="35" viewBox="0 0 34 35" fill="none" xmlns="http://www.w3.org/2000/svg">
<path d="M21.8649 25.6167C21.8649 25.7377 22.0011 25.8346 22.173 25.8346C22.3685 25.8527 22.5048 25.7558 22.5048 25.6167C22.5048 25.4957 22.3685 25.3988 22.1967 25.3988C22.0189 25.3807 21.8649 25.4776 21.8649 25.6167ZM23.7076 25.3444C23.7491 25.4654 23.6306 25.6046 23.4528 25.6409C23.2988 25.7014 23.121 25.6409 23.0855 25.5199C23.0499 25.3988 23.1624 25.2597 23.3402 25.2053C23.4943 25.1629 23.6661 25.2234 23.7076 25.3444ZM21.0886 25.2416C21.2605 25.2839 21.379 25.3988 21.3612 25.538C21.3434 25.6591 21.1893 25.7377 21.0115 25.6954C20.8398 25.653 20.7212 25.538 20.739 25.417C20.7568 25.3021 20.9167 25.2234 21.0886 25.2416ZM17.1897 2.05475C25.4082 2.05475 31.695 8.42629 31.695 16.8188C31.695 23.5292 27.5591 29.2714 21.6515 31.2924C20.893 31.4315 20.6264 30.9535 20.6264 30.5602C20.6264 30.1851 20.6442 28.1157 20.6442 26.845C20.6442 26.845 24.7919 27.7526 25.663 25.0418C25.663 25.0418 26.3384 23.2811 27.3102 22.8272C27.3102 22.8272 28.6671 21.8773 27.2154 21.8954C27.2154 21.8954 25.74 22.0165 24.9283 23.4566C23.6306 25.7921 21.456 25.1206 20.6086 24.7211C20.4724 23.753 20.0872 23.0814 19.6606 22.682C22.9729 22.3069 26.3148 21.8168 26.3148 15.9959C26.3148 14.3319 25.8645 13.4969 24.9164 12.4319C25.0704 12.0386 25.5741 10.417 24.7623 8.3234C23.5239 7.93012 20.6738 9.95717 20.6738 9.95717C19.4887 9.61832 18.2148 9.44283 16.9527 9.44283C15.6906 9.44283 14.4167 9.61832 13.2315 9.95717C13.2315 9.95717 10.3814 7.92406 9.14303 8.3234C8.33124 10.4231 8.83492 12.0386 8.98898 12.4319C8.04094 13.5029 7.46025 14.3379 7.46025 15.9959C7.46025 21.8349 10.9503 22.3009 14.2625 22.682C13.7174 23.1601 13.2552 24.0677 13.2552 25.4896C13.2552 27.5288 13.2731 30.052 13.2731 30.5482C13.2731 30.9415 13.0005 31.4195 12.248 31.2803C6.32258 29.2714 2.30518 23.5292 2.30518 16.8188C2.30518 8.42629 8.97125 2.05475 17.1897 2.05475ZM25.9355 22.9241C26.0126 22.9846 25.9948 23.1238 25.8941 23.2387C25.7993 23.3356 25.663 23.3779 25.5859 23.2993C25.5089 23.2387 25.5267 23.0996 25.6274 22.9846C25.7222 22.8878 25.8585 22.8454 25.9355 22.9241ZM26.5755 22.4339C26.617 22.5126 26.5577 22.6094 26.4392 22.67C26.3444 22.7305 26.2259 22.7123 26.1844 22.6276C26.1429 22.549 26.2022 22.4521 26.3207 22.3916C26.4392 22.3553 26.534 22.3735 26.5755 22.4339ZM24.6557 24.5881C24.7505 24.6667 24.7149 24.8483 24.5786 24.9632C24.4424 25.1024 24.2705 25.1206 24.1935 25.0237C24.1165 24.9451 24.152 24.7636 24.2705 24.6485C24.4009 24.5094 24.5786 24.4913 24.6557 24.5881ZM25.3312 23.6986C25.426 23.7591 25.426 23.9164 25.3312 24.0556C25.2364 24.1948 25.0764 24.2552 24.9993 24.1948C24.9045 24.1161 24.9045 23.9588 24.9993 23.8196C25.0823 23.6804 25.2364 23.62 25.3312 23.6986Z" fill="#AED6DC"/>
</svg>
