<svg width="487" height="464" viewBox="0 0 487 464" fill="none" xmlns="http://www.w3.org/2000/svg">
<path d="M337.44 323.46C355.411 321.596 369.045 306.077 368.425 287.452C367.807 268.829 352.312 253.929 333.721 253.929H332.482C313.268 254.55 298.396 270.69 299.016 289.935C299.636 299.247 303.353 307.318 308.931 312.905C287.861 354.5 255.635 384.919 207.296 410.372C174.451 427.754 140.366 433.963 106.282 429.618C78.3937 425.893 56.7031 413.478 43.0671 392.989C23.2371 362.57 21.3785 329.666 38.1115 296.764C49.887 273.173 68.4767 255.79 80.2523 247.099C77.7735 239.029 74.0544 225.372 72.1958 215.44C-17.6652 280.624 -8.36843 368.778 18.8998 410.372C39.35 441.414 80.8724 460.658 126.732 460.658C139.126 460.658 151.52 459.416 163.915 456.314C243.241 440.793 303.355 393.61 337.44 323.46ZM446.512 246.48C399.412 191.227 330.003 160.808 250.678 160.808H240.762C235.185 149.634 223.409 142.183 210.395 142.183H209.155C189.945 142.804 175.073 158.945 175.691 178.191C176.311 196.814 191.804 211.714 210.395 211.714H211.634C225.268 211.093 237.043 202.402 242.001 190.606H253.156C300.256 190.606 344.876 204.263 385.16 230.959C416.145 251.446 438.456 278.141 450.85 310.422C461.385 336.496 460.765 361.949 449.609 383.678C432.258 416.58 403.131 434.584 364.708 434.584C339.918 434.584 316.369 427.133 303.974 421.546C297.157 427.754 284.762 437.686 276.085 443.897C302.735 456.312 330.003 463.141 356.031 463.141C415.525 463.141 459.526 430.238 476.259 397.336C494.231 361.328 492.99 299.247 446.512 246.48ZM131.69 334.011C132.31 352.636 147.803 367.534 166.394 367.534H167.635C186.846 366.915 201.719 350.773 201.099 331.528C200.48 312.903 184.986 298.005 166.394 298.005H165.156C163.915 298.005 162.055 298.005 160.818 298.624C135.409 256.41 124.874 210.472 128.593 160.806C131.07 123.558 143.465 91.2754 165.156 64.58C183.127 41.61 217.832 30.4357 241.383 29.8164C307.072 28.5739 334.959 110.52 336.819 143.424C344.876 145.285 358.51 149.632 367.807 152.736C360.369 52.167 298.396 0.0186768 238.904 0.0186768C183.127 0.0186768 131.69 40.3714 111.238 99.9687C82.731 179.432 101.323 255.79 136.027 316.009C132.93 320.354 131.07 327.181 131.69 334.011Z" fill="#AED6DC"/>
</svg>
