<svg width="640" height="481" viewBox="0 0 640 481" fill="none" xmlns="http://www.w3.org/2000/svg">
<path d="M301.84 362.92C301.54 363.52 301.24 364 301.84 362.92ZM550.97 275.92C530.857 275.913 511.013 280.533 492.97 289.42C487.07 277.52 480.97 267.12 479.97 259.32C478.77 250.22 477.47 244.82 478.87 234.02C480.27 223.22 486.57 207.92 486.47 206.82C486.37 205.72 485.07 200.22 472.17 200.12C459.27 200.02 448.17 202.62 446.88 206.02C444.602 212.233 442.829 218.621 441.58 225.12C439.28 236.82 415.79 278.62 402.49 300.42C398.09 291.92 394.39 284.42 393.59 278.42C392.39 269.32 391.09 263.92 392.49 253.12C393.89 242.32 400.19 227.02 400.09 225.92C399.99 224.82 398.69 219.32 385.8 219.22C372.91 219.12 361.8 221.72 360.5 225.12C359.2 228.52 357.8 236.52 355.2 244.22C352.6 251.92 321.31 321.52 313.12 339.62C308.92 348.82 305.32 356.22 302.72 361.22C302.32 362.02 302.02 362.52 301.82 362.92C302.12 362.42 302.32 361.92 302.32 362.12C300.12 366.42 298.82 368.82 298.82 368.82V368.92C297.12 372.12 295.22 375.02 294.32 375.02C293.72 375.02 292.42 366.62 294.62 355.12C299.32 330.92 310.42 293.32 310.32 292.02C310.22 291.32 312.42 284.82 303.02 281.32C293.92 278.02 290.62 283.52 289.82 283.52C289.02 283.52 288.42 285.52 288.42 285.52C288.42 285.52 298.52 243.12 269.03 243.12C250.63 243.12 225.03 263.32 212.45 281.62C204.55 285.92 187.45 295.22 169.45 305.12C162.55 308.92 155.45 312.82 148.75 316.52C148.25 316.02 147.85 315.52 147.35 315.02C111.56 276.82 45.4801 249.82 48.2801 198.52C49.2801 179.82 55.7801 130.72 175.35 71.12C273.35 22.32 351.7 35.72 365.19 65.52C384.59 108.02 323.3 187.12 221.53 198.52C182.74 202.82 162.35 187.82 157.25 182.22C151.95 176.32 151.15 176.02 149.15 177.12C145.85 178.92 147.95 184.12 149.15 187.22C152.15 195.12 164.65 209.12 185.94 216.12C204.64 222.22 250.12 225.62 305.11 204.32C366.89 180.52 414.98 114.22 400.88 58.72C386.52 2.32 293 -16.18 204.57 15.22C151.88 33.92 94.9001 63.32 53.9101 101.62C5.2201 147.22 -2.5699 186.92 0.630099 203.52C12.0201 262.42 93.2001 300.82 125.69 329.22C124.09 330.12 122.59 330.92 121.19 331.72C104.9 339.82 43.0101 372.22 27.5201 406.42C10.0201 445.22 30.4201 473.02 43.8101 476.82C85.6001 488.42 128.39 467.52 151.38 433.22C174.37 398.92 171.58 354.12 160.98 333.72C160.88 333.42 160.68 333.22 160.58 332.92C164.78 330.42 169.08 327.92 173.38 325.42C181.67 320.52 189.77 316.02 196.87 312.12C192.87 322.92 189.97 335.92 188.47 354.72C186.67 376.72 195.77 405.22 207.57 416.42C212.77 421.32 219.06 421.42 222.96 421.42C236.76 421.42 242.96 410.02 249.85 396.42C258.35 379.82 265.85 360.52 265.85 360.52C265.85 360.52 256.45 412.72 282.15 412.72C291.54 412.72 300.94 400.62 305.15 394.42V394.52C305.15 394.52 305.35 394.12 305.85 393.32C306.85 391.82 307.35 390.92 307.35 390.92V390.62C311.15 384.12 319.45 369.22 331.94 344.62C348.14 312.82 363.63 273.12 363.63 273.12C365.127 281.847 367.198 290.466 369.83 298.92C372.63 308.42 378.53 318.82 383.23 328.92C379.43 334.12 377.13 337.12 377.13 337.12C377.137 337.197 377.173 337.268 377.23 337.32C374.23 341.32 370.83 345.62 367.33 349.82C354.54 365.02 339.33 382.42 337.33 387.42C334.93 393.32 335.53 397.72 340.13 401.12C343.53 403.72 349.53 404.12 355.82 403.62C367.32 402.82 375.42 400.02 379.32 398.22C386.51 395.642 393.305 392.074 399.51 387.62C412.01 378.42 419.61 365.22 418.91 347.82C418.51 338.22 415.41 328.62 411.61 319.62C412.71 318.02 413.91 316.32 415.01 314.62C434.8 285.72 450.1 254 450.1 254C451.597 262.727 453.668 271.346 456.3 279.8C458.7 287.9 463.39 296.8 467.69 305.5C449.1 320.6 437.6 338.1 433.6 349.6C426.2 370.9 432 380.5 442.9 382.7C447.8 383.7 454.8 381.4 460 379.2C467.723 376.628 475.004 372.884 481.59 368.1C494.09 358.9 506.18 346 505.38 328.5C505.08 320.6 502.88 312.7 499.98 305.1C515.68 298.5 536.07 294.9 562.07 297.9C617.75 304.4 628.65 339.2 626.55 353.7C624.45 368.2 612.75 376.3 608.85 378.7C604.95 381.1 603.75 382 604.05 383.8C604.55 386.4 606.35 386.3 609.65 385.7C614.25 384.9 638.84 373.9 639.94 347C641.54 313 608.85 275.6 550.94 275.9L550.97 275.92ZM121.79 420.62C103.4 440.72 77.6001 448.32 66.5101 441.92C54.6101 435 59.3101 405.42 82.0001 384C95.8001 371 113.59 359 125.39 351.6C128.09 350 131.99 347.6 136.79 344.7C137.59 344.2 137.99 344 137.99 344C138.89 343.4 139.89 342.9 140.89 342.3C149.18 372.7 141.19 399.5 121.79 420.6V420.62ZM256.15 329.22C249.75 344.92 236.26 384.92 228.06 382.82C221.06 381.02 216.76 350.52 226.66 320.52C231.66 305.42 242.26 287.42 248.56 280.42C258.65 269.12 269.75 265.52 272.35 270.02C275.85 275.92 260.15 319.42 256.15 329.22ZM367.15 382.22C364.45 383.62 361.95 384.52 360.75 383.82C359.85 383.32 361.85 381.42 361.85 381.42C361.85 381.42 375.75 366.52 381.25 359.72C384.45 355.72 388.15 351.02 392.14 345.82C392.14 346.32 392.24 346.82 392.24 347.42C392.11 365.32 374.92 377.42 367.12 382.22H367.15ZM452.73 362.72C450.73 361.32 451.03 356.62 457.73 342.02C460.33 336.32 466.32 326.72 476.73 317.52C477.908 321.003 478.549 324.644 478.63 328.32C478.53 350.82 462.43 359.22 452.74 362.72H452.73Z" fill="#AED6DC"/>
</svg>
