<svg width="33" height="31" viewBox="0 0 33 31" fill="none" xmlns="http://www.w3.org/2000/svg">
<path d="M10.3661 29.0626C22.8195 29.0626 29.6319 19.3693 29.6319 10.978C29.6319 10.7067 29.6319 10.4316 29.6196 10.1604C30.9458 9.25845 32.0906 8.14179 33 6.86275C31.7611 7.3759 30.4482 7.7141 29.1039 7.86637C30.5199 7.0713 31.5804 5.82032 32.0884 4.34594C30.7581 5.0863 29.3019 5.60603 27.7839 5.88237C26.7634 4.86136 25.4129 4.18497 23.9417 3.95797C22.4704 3.73096 20.9606 3.96603 19.646 4.62675C18.3314 5.28747 17.2854 6.33696 16.67 7.61268C16.0547 8.88841 15.9043 10.3191 16.2422 11.6832C13.5501 11.5564 10.9164 10.8995 8.51202 9.75494C6.10762 8.61039 3.98616 7.00389 2.28525 5.03956C1.42176 6.44054 1.15824 8.09771 1.54821 9.67459C1.93817 11.2514 2.95238 12.6298 4.38487 13.5297C3.31143 13.4954 2.26157 13.2247 1.32 12.7392V12.8264C1.32185 14.294 1.86307 15.716 2.85217 16.8521C3.84128 17.9881 5.21761 18.7684 6.7485 19.0612C6.16742 19.2117 5.56716 19.2866 4.96444 19.2841C4.53953 19.2852 4.11547 19.2483 3.69806 19.1736C4.13075 20.437 4.97325 21.5415 6.10757 22.3327C7.24189 23.1238 8.61118 23.5618 10.0237 23.5853C7.62415 25.3558 4.66001 26.316 1.60875 26.3114C1.0711 26.3135 0.533823 26.2844 0 26.2242C3.09688 28.0789 6.69342 29.0637 10.3661 29.0626Z" fill="#AED6DC"/>
</svg>
