<svg width="29" height="29" viewBox="0 0 29 29" fill="none" xmlns="http://www.w3.org/2000/svg">
<path d="M24.7632 4.21595C23.4277 2.87412 21.8373 1.81031 20.0846 1.08651C18.3319 0.362708 16.4521 -0.00660523 14.5546 8.94113e-05C6.60365 8.94113e-05 0.123807 6.44894 0.116524 14.3659C0.116524 16.9016 0.782898 19.3684 2.041 21.5525L0 29L7.65419 27.0026C9.77167 28.1498 12.1439 28.7511 14.5546 28.7517H14.5619C22.5147 28.7517 28.9927 22.3028 29 14.3786C29.0018 12.4901 28.6282 10.6198 27.9008 8.87565C27.1733 7.13148 26.1082 5.54783 24.7632 4.21595ZM14.5546 26.3193C12.4044 26.32 10.2937 25.744 8.44437 24.6518L8.00741 24.3908L3.4666 25.5762L4.67918 21.1664L4.39515 20.7115C3.19314 18.8089 2.55743 16.6062 2.56171 14.3587C2.56171 7.78656 7.9455 2.42521 14.5619 2.42521C16.1381 2.42239 17.6994 2.7302 19.1555 3.33089C20.6117 3.93159 21.9341 4.81328 23.0463 5.92513C24.1625 7.03266 25.0473 8.34921 25.6498 9.79885C26.2523 11.2485 26.5605 12.8025 26.5566 14.3714C26.5493 20.967 21.1656 26.3193 14.5546 26.3193ZM21.1364 17.3765C20.7777 17.197 19.0062 16.3289 18.673 16.2056C18.3417 16.0878 18.0995 16.0262 17.8628 16.385C17.6207 16.7421 16.9288 17.5559 16.7212 17.7897C16.5137 18.0308 16.2988 18.058 15.9383 17.8803C15.5797 17.6991 14.4162 17.3221 13.0398 16.095C11.9656 15.1435 11.2464 13.9654 11.0316 13.6083C10.824 13.2494 11.0115 13.0573 11.1918 12.8779C11.3502 12.7184 11.5505 12.4574 11.7307 12.2507C11.9128 12.0441 11.9729 11.8919 12.0912 11.6526C12.2096 11.4097 12.1531 11.2031 12.0639 11.0237C11.9729 10.8442 11.2537 9.07344 10.9496 8.35931C10.6583 7.65425 10.3616 7.75213 10.1394 7.74306C9.93188 7.73038 9.68973 7.73038 9.44757 7.73038C9.26471 7.7349 9.08476 7.77701 8.91902 7.85405C8.75327 7.93109 8.60531 8.0414 8.48443 8.17806C8.15306 8.53694 7.22633 9.40512 7.22633 11.1759C7.22633 12.9467 8.51902 14.6487 8.70109 14.8897C8.87952 15.1308 11.2391 18.754 14.8605 20.3127C15.7162 20.6843 16.3899 20.9036 16.9161 21.0703C17.7809 21.3458 18.562 21.3041 19.1846 21.2153C19.8765 21.1102 21.3167 20.3453 21.6207 19.5062C21.9193 18.6652 21.9193 17.9474 21.8283 17.797C21.7391 17.6447 21.4969 17.5559 21.1364 17.3765Z" fill="#AED6DC"/>
</svg>
